<svg width="31" height="31" viewBox="0 0 31 31" fill="none" xmlns="http://www.w3.org/2000/svg">
<ellipse cx="15.463" cy="15.5" rx="15.463" ry="15.5" fill="#C4C4C4" fill-opacity="0.2"/>
<path d="M24.0731 20.4318H21.613V17.9659H20.383V20.4318H17.923V21.6648H20.383V24.1307H21.613V21.6648H24.0731V20.4318Z" fill="black" fill-opacity="0.2"/>
<path d="M15.463 22.8977H10.5429V8.10229H15.463V11.8012C15.464 12.1279 15.5939 12.4409 15.8243 12.6719C16.0548 12.9029 16.3671 13.0331 16.693 13.0341H20.383V15.5H21.613V11.8012C21.6152 11.7201 21.5998 11.6396 21.568 11.5651C21.5361 11.4906 21.4886 11.4239 21.4285 11.3696L17.1235 7.05428C17.0694 6.99408 17.0028 6.94636 16.9285 6.91443C16.8542 6.88251 16.7738 6.86712 16.693 6.86933H10.5429C10.217 6.87031 9.90473 7.00052 9.67426 7.23154C9.4438 7.46255 9.3139 7.77559 9.31293 8.10229V22.8977C9.3139 23.2244 9.4438 23.5375 9.67426 23.7685C9.90473 23.9995 10.217 24.1297 10.5429 24.1307H15.463V22.8977ZM16.693 8.34888L20.137 11.8012H16.693V8.34888Z" fill="black" fill-opacity="0.2"/>
</svg>
