<svg width="25" height="25" viewBox="0 0 25 25" fill="none" xmlns="http://www.w3.org/2000/svg">
<circle cx="12.5" cy="12.5" r="12.5" fill="#C6DCEE"/>
<path fill-rule="evenodd" clip-rule="evenodd" d="M13.5 5.625C13.5 5.07272 13.0523 4.625 12.5 4.625C11.9477 4.625 11.5 5.07272 11.5 5.625V11.8125H5.3125C4.76021 11.8125 4.3125 12.2602 4.3125 12.8125C4.3125 13.3648 4.76021 13.8125 5.3125 13.8125H11.5V20C11.5 20.5523 11.9477 21 12.5 21C13.0523 21 13.5 20.5523 13.5 20V13.8125H19.6875C20.2398 13.8125 20.6875 13.3648 20.6875 12.8125C20.6875 12.2602 20.2398 11.8125 19.6875 11.8125H13.5V5.625Z" fill="white"/>
</svg>
