<svg width="17" height="17" viewBox="0 0 17 17" fill="none" xmlns="http://www.w3.org/2000/svg">
<circle cx="8.5" cy="8.5" r="8.5" fill="#FFD56B" fill-opacity="0.97"/>
<path d="M7.604 10.084C7.604 9.668 7.696 9.324 7.88 9.052C8.072 8.78 8.348 8.48 8.708 8.152C8.972 7.912 9.164 7.712 9.284 7.552C9.412 7.384 9.476 7.196 9.476 6.988C9.476 6.692 9.356 6.46 9.116 6.292C8.884 6.116 8.572 6.028 8.18 6.028C7.804 6.028 7.468 6.108 7.172 6.268C6.884 6.42 6.64 6.636 6.44 6.916L4.988 6.064C5.324 5.552 5.776 5.156 6.344 4.876C6.92 4.596 7.6 4.456 8.384 4.456C9.304 4.456 10.04 4.652 10.592 5.044C11.152 5.436 11.432 5.98 11.432 6.676C11.432 7.004 11.376 7.292 11.264 7.54C11.16 7.788 11.028 8 10.868 8.176C10.716 8.344 10.516 8.54 10.268 8.764C9.972 9.028 9.756 9.252 9.62 9.436C9.484 9.612 9.416 9.828 9.416 10.084H7.604ZM8.516 13.096C8.188 13.096 7.912 12.992 7.688 12.784C7.472 12.568 7.364 12.308 7.364 12.004C7.364 11.7 7.472 11.448 7.688 11.248C7.904 11.04 8.18 10.936 8.516 10.936C8.852 10.936 9.128 11.04 9.344 11.248C9.56 11.448 9.668 11.7 9.668 12.004C9.668 12.308 9.556 12.568 9.332 12.784C9.116 12.992 8.844 13.096 8.516 13.096Z" fill="white"/>
</svg>
