<svg width="72" height="31" viewBox="0 0 72 31" fill="none" xmlns="http://www.w3.org/2000/svg">
<path d="M30.7229 15.3612C30.7229 13.4715 30.3649 11.6691 29.7407 9.99726C29.5756 15.5 23.9825 19.7605 20.6987 22.5799H28.9181C30.067 20.4271 30.7229 17.9712 30.7229 15.3612ZM24.781 3.24454C22.1786 1.21841 18.9156 0 15.3618 0C6.87777 0 0 6.87777 0 15.3612C0 23.8445 6.87777 30.7221 15.3618 30.7221C19.2467 30.7221 22.7842 29.2685 25.4894 26.8898H14.368L14.3341 23.6238C21.0351 17.7984 25.143 13.8588 25.143 10.0535C25.143 8.63925 24.6043 6.85461 22.1801 6.85461C20.2605 6.85461 18.4087 7.96656 18.7452 12.6129H14.8395C13.8628 7.22573 16.7924 2.94888 22.3815 2.94888C23.2481 2.94888 24.0496 3.05233 24.781 3.24454Z" fill="#A3C626"/>
<path d="M44.9708 10.6171H48.6043C48.7285 7.85346 47.7972 3.47401 41.8037 3.47401C37.3934 3.47401 34.1945 6.1143 34.1945 11.6109C34.1945 12.3563 34.2253 16.2071 34.2253 18.5983C34.2253 24.5616 38.3563 25.8656 41.8345 25.8656C43.9153 25.8656 46.9277 25.3995 48.325 23.8779V14.3748H41.4927V17.8221H44.5365V22.0147C42.238 22.7909 38.0454 23.1017 38.0454 17.8221V11.6109C38.0454 7.91516 39.7537 6.642 41.6477 6.642C43.6046 6.642 44.9708 7.63584 44.9708 10.6171ZM71.998 19.8403C72.153 11.3316 62.402 14.1572 62.4945 9.40587C62.5254 7.72924 63.6126 6.642 65.3833 6.642C67.2775 6.642 68.3948 7.76006 68.3639 10.6796H71.9354C72.0288 8.03938 71.4077 3.53654 65.5075 3.53654C61.8426 3.53654 58.8305 5.3381 58.768 9.34399C58.6129 17.5111 68.4265 14.8406 68.2714 19.7786C68.2088 21.7971 66.7489 22.6975 65.1034 22.6975C63.1782 22.6975 61.6252 21.5795 61.936 18.2256H58.3327C57.9292 22.6667 59.886 25.8348 65.0725 25.8348C69.4511 25.8348 71.9354 23.4119 71.998 19.8403ZM55.5914 25.5546H51.9274V3.81586H55.5914V25.5546ZM55.5914 25.5546H51.9274V3.81586H55.5914V25.5546Z" fill="#434242"/>
</svg>
