<svg width="95" height="31" viewBox="0 0 95 31" fill="none" xmlns="http://www.w3.org/2000/svg">
<g clip-path="url(#clip0_2_30)">
<path d="M11.6998 0.00227737H12.5446C15.4774 0.0660005 18.3625 1.24488 20.4347 3.33181C19.6696 4.11242 18.8885 4.86117 18.1394 5.64178C16.9758 4.59034 15.5731 3.77787 14.0429 3.49112C11.7795 3.0132 9.3407 3.44333 7.44389 4.73372C5.37174 6.08784 3.96906 8.38187 3.66621 10.8352C3.33147 13.2567 4.01688 15.8056 5.5949 17.6855C7.10916 19.5175 9.4204 20.6645 11.8113 20.7442C14.0429 20.8716 16.3701 20.1866 17.9959 18.6254C19.2711 17.5261 19.8608 15.8534 20.0521 14.2285C17.4061 14.2285 14.7602 14.2444 12.1142 14.2285V10.9467H23.256C23.8298 14.4674 23.0009 18.4342 20.3231 20.9513C18.5378 22.7355 16.0672 23.7869 13.5488 23.994C11.11 24.233 8.59154 23.771 6.42376 22.5921C3.8256 21.2062 1.75345 18.8643 0.733319 16.1083C-0.223057 13.5753 -0.238996 10.7078 0.653621 8.15884C1.46654 5.83295 3.02862 3.77787 5.03701 2.3441C6.9657 0.926263 9.30882 0.145654 11.6998 0.00227737Z" fill="#3780FF"/>
<path d="M75.6175 0.831142H79.0285V23.5803C77.8968 23.5803 76.7492 23.5962 75.6175 23.5644C75.6334 15.9972 75.6175 8.4142 75.6175 0.831142Z" fill="#38B137"/>
<path d="M30.8431 8.71688C32.9472 8.31861 35.2265 8.76467 36.9639 10.0232C38.542 11.1384 39.6418 12.8907 39.9765 14.8024C40.4069 17.0168 39.865 19.4383 38.4304 21.1907C36.8842 23.1502 34.3499 24.2016 31.8792 24.0423C29.6158 23.9148 27.4161 22.7838 26.0772 20.9358C24.5629 18.8966 24.1963 16.0928 25.0252 13.7032C25.854 11.1384 28.1972 9.17887 30.8431 8.71688ZM31.3213 11.7437C30.4606 11.9668 29.6636 12.4606 29.0898 13.1616C27.5436 15.0095 27.6393 18.0205 29.3448 19.741C30.3171 20.7287 31.7836 21.1907 33.1384 20.9199C34.3977 20.6968 35.4975 19.8525 36.1032 18.7373C37.1552 16.8416 36.8524 14.2289 35.2425 12.7474C34.2064 11.7915 32.6921 11.3933 31.3213 11.7437Z" fill="#FA3913"/>
<path d="M47.7391 8.71688C50.1459 8.25489 52.776 8.92398 54.5771 10.6126C57.51 13.2412 57.8288 18.1638 55.3263 21.1907C53.812 23.1024 51.3573 24.1538 48.9345 24.0423C46.6233 23.9786 44.3439 22.8316 42.9731 20.9358C41.427 18.8489 41.0923 15.9813 41.9689 13.5439C42.8456 11.0587 45.1409 9.16294 47.7391 8.71688ZM48.2173 11.7437C47.3565 11.9668 46.5595 12.4606 45.9857 13.1456C44.4555 14.9617 44.5193 17.9249 46.161 19.6613C47.1334 20.6968 48.6476 21.2066 50.0503 20.9199C51.2936 20.6809 52.4094 19.8525 53.0151 18.7373C54.0511 16.8256 53.7483 14.213 52.1224 12.7314C51.0864 11.7756 49.5721 11.3933 48.2173 11.7437Z" fill="#FCBD06"/>
<path d="M62.0688 9.64086C63.9019 8.49385 66.3406 8.17523 68.3171 9.16294C68.9388 9.43376 69.4488 9.89575 69.943 10.3577C69.9589 9.92762 69.943 9.48155 69.9589 9.03549C71.0269 9.05142 72.0948 9.03549 73.1787 9.05142V23.1024C73.1628 25.2212 72.6208 27.4674 71.0906 29.0127C69.417 30.7173 66.8507 31.243 64.5394 30.8925C62.0688 30.5261 59.917 28.7259 58.9606 26.4478C59.917 25.9858 60.9212 25.6194 61.9094 25.1893C62.4673 26.4956 63.599 27.6108 65.0176 27.8657C66.4363 28.1206 68.078 27.7701 69.0025 26.5912C69.9908 25.3805 69.9908 23.7237 69.943 22.2421C69.2097 22.959 68.3649 23.5962 67.3448 23.8352C65.1292 24.4565 62.6905 23.6918 60.9849 22.1943C59.2634 20.6968 58.2433 18.3869 58.3389 16.0928C58.3868 13.4961 59.8532 10.995 62.0688 9.64086ZM65.3683 11.68C64.396 11.8393 63.4874 12.381 62.8658 13.1297C61.3675 14.914 61.3675 17.7656 62.8817 19.518C63.7425 20.5535 65.1292 21.127 66.4681 20.9836C67.7274 20.8561 68.891 20.0596 69.5126 18.9604C70.5646 17.0965 70.3893 14.5635 68.9707 12.9385C68.094 11.9349 66.6913 11.441 65.3683 11.68Z" fill="#3780FF"/>
<path d="M83.125 10.4533C85.0377 8.66909 87.9866 8.06372 90.4413 9.00363C92.7685 9.87983 94.2508 12.0942 95 14.3723C91.5411 15.8061 88.0982 17.2239 84.6393 18.6577C85.1174 19.5657 85.8507 20.3941 86.8389 20.7287C88.2257 21.2225 89.8834 21.0473 91.047 20.1233C91.5092 19.7728 91.8758 19.3109 92.2265 18.8648C93.1032 19.4542 93.9799 20.0277 94.8565 20.6172C93.6133 22.4811 91.5252 23.7874 89.2777 23.9945C86.7911 24.2972 84.1451 23.3413 82.5352 21.3978C79.8893 18.3391 80.1443 13.2094 83.125 10.4533ZM84.8305 13.4005C84.2886 14.1811 84.0654 15.137 84.0814 16.0769C86.3926 15.1211 88.7039 14.1652 91.0151 13.1934C90.6325 12.3013 89.7081 11.7597 88.7676 11.6163C87.2534 11.3455 85.6753 12.1579 84.8305 13.4005Z" fill="#FA3913"/>
</g>
<defs>
<clipPath id="clip0_2_30">
<rect width="95" height="30.9909" fill="white"/>
</clipPath>
</defs>
</svg>
