<svg width="89" height="31" viewBox="0 0 89 31" fill="none" xmlns="http://www.w3.org/2000/svg">
<path d="M12.5618 31C10.1488 31 7.80678 30.7019 5.53571 30.1058C3.26465 29.5096 1.41941 28.7147 0 27.7212L2.76786 21.5041C4.10211 22.3842 5.64927 23.0939 7.40934 23.6332C9.16941 24.1726 10.9011 24.4423 12.6044 24.4423C15.8407 24.4423 17.4588 23.6332 17.4588 22.0151C17.4588 21.1635 16.9904 20.5389 16.0536 20.1415C15.1451 19.7157 13.669 19.2756 11.625 18.8214C9.38233 18.3388 7.5087 17.8278 6.00412 17.2885C4.49954 16.7207 3.20788 15.8265 2.12912 14.6058C1.05037 13.3851 0.510989 11.7386 0.510989 9.66621C0.510989 7.84936 1.00778 6.21703 2.00137 4.76923C2.99496 3.29304 4.47115 2.12912 6.42994 1.27747C8.41712 0.425825 10.8443 0 13.7115 0C15.6703 0 17.6007 0.227107 19.5027 0.68132C21.4048 1.10714 23.0797 1.74588 24.5275 2.59753L21.9299 8.85714C19.0911 7.32418 16.3375 6.55769 13.669 6.55769C11.994 6.55769 10.7734 6.81319 10.0069 7.32417C9.24038 7.80678 8.85714 8.44551 8.85714 9.24039C8.85714 10.0353 9.31135 10.6314 10.2198 11.0288C11.1282 11.4263 12.5902 11.8379 14.6058 12.2637C16.8768 12.7463 18.7505 13.2715 20.2266 13.8393C21.7312 14.3787 23.0229 15.2587 24.1016 16.4794C25.2088 17.6717 25.7624 19.304 25.7624 21.3764C25.7624 23.1648 25.2656 24.783 24.272 26.2308C23.2784 27.6786 21.788 28.8425 19.8008 29.7225C17.8136 30.5742 15.4006 31 12.5618 31Z" fill="#F05D07"/>
<path d="M43.2834 0.596154C45.9802 0.596154 48.3223 1.05037 50.3095 1.95879C52.2966 2.83883 53.8296 4.1163 54.9084 5.79121C55.9871 7.43773 56.5265 9.38233 56.5265 11.625C56.5265 13.8677 55.9871 15.8123 54.9084 17.4588C53.8296 19.1053 52.2966 20.3828 50.3095 21.2912C48.3223 22.1712 45.9802 22.6113 43.2834 22.6113H38.0883V30.4038H29.657V0.596154H43.2834ZM42.7724 15.9684C44.5041 15.9684 45.8099 15.5994 46.69 14.8613C47.57 14.0948 48.01 13.016 48.01 11.625C48.01 10.234 47.57 9.15522 46.69 8.38874C45.8099 7.62225 44.5041 7.23901 42.7724 7.23901H38.0883V15.9684H42.7724Z" fill="#F05D07"/>
<path d="M73.6676 22.4835H69.0687V30.4038H60.6374V0.596154H74.2637C76.9606 0.596154 79.3026 1.05037 81.2898 1.95879C83.277 2.83883 84.81 4.1163 85.8887 5.79121C86.9675 7.43773 87.5069 9.38233 87.5069 11.625C87.5069 13.7825 86.9959 15.6703 85.9739 17.2885C84.9803 18.8782 83.5467 20.1273 81.6731 21.0357L88.103 30.4038H79.0755L73.6676 22.4835ZM78.9904 11.625C78.9904 10.234 78.5504 9.15522 77.6703 8.38874C76.7903 7.62225 75.4844 7.23901 73.7527 7.23901H69.0687V15.9684H73.7527C75.4844 15.9684 76.7903 15.5994 77.6703 14.8613C78.5504 14.0948 78.9904 13.016 78.9904 11.625Z" fill="#F05D07"/>
</svg>
