<svg width="131" height="31" viewBox="0 0 131 31" fill="none" xmlns="http://www.w3.org/2000/svg">
<path d="M17.8973 20.4187V30.6693H11.2013V20.336L0 1.736H7.10933L14.8387 14.5907L22.568 1.736H29.14L17.8973 20.4187Z" fill="#E72317"/>
<path d="M50.8074 19.6333C50.8074 19.716 50.766 20.2947 50.6834 21.3693H33.8607C34.1638 22.7471 34.8803 23.8356 36.01 24.6347C37.1398 25.4338 38.5452 25.8333 40.226 25.8333C41.3834 25.8333 42.4029 25.668 43.2847 25.3373C44.194 24.9791 45.0345 24.428 45.806 23.684L49.2367 27.404C47.1425 29.8013 44.0838 31 40.0607 31C37.5532 31 35.3349 30.5178 33.406 29.5533C31.4772 28.5613 29.9892 27.1973 28.942 25.4613C27.8949 23.7253 27.3714 21.7551 27.3714 19.5507C27.3714 17.3738 27.8812 15.4173 28.9007 13.6813C29.9478 11.9178 31.3669 10.5538 33.158 9.58933C34.9767 8.59733 37.002 8.10133 39.234 8.10133C41.4109 8.10133 43.3812 8.56978 45.1447 9.50667C46.9083 10.4436 48.286 11.7938 49.278 13.5573C50.2976 15.2933 50.8074 17.3187 50.8074 19.6333ZM39.2754 12.9787C37.8149 12.9787 36.5887 13.392 35.5967 14.2187C34.6047 15.0453 33.9985 16.1751 33.778 17.608H44.7314C44.5109 16.2027 43.9047 15.0867 42.9127 14.26C41.9207 13.4058 40.7083 12.9787 39.2754 12.9787Z" fill="#E72317"/>
<path d="M55.1002 0H61.5482V30.6693H55.1002V0Z" fill="#E72317"/>
<path d="M67.5325 0H73.9805V30.6693H67.5325V0Z" fill="#E72317"/>
<path d="M82.4035 31C81.2737 31 80.323 30.6142 79.5515 29.8427C78.7799 29.0711 78.3941 28.1067 78.3941 26.9493C78.3941 25.7644 78.7799 24.8138 79.5515 24.0973C80.323 23.3533 81.2737 22.9813 82.4035 22.9813C83.5333 22.9813 84.4839 23.3533 85.2555 24.0973C86.027 24.8138 86.4128 25.7644 86.4128 26.9493C86.4128 28.1067 86.027 29.0711 85.2555 29.8427C84.4839 30.6142 83.5333 31 82.4035 31Z" fill="#E72317"/>
<path d="M96.9412 11.3667C97.7127 10.292 98.7461 9.47911 100.041 8.928C101.364 8.37689 102.879 8.10133 104.588 8.10133V14.0533C103.871 13.9982 103.389 13.9707 103.141 13.9707C101.295 13.9707 99.8483 14.4942 98.8012 15.5413C97.7541 16.5609 97.2305 18.104 97.2305 20.1707V30.6693H90.7825V8.432H96.9412V11.3667Z" fill="#E72317"/>
<path d="M130.986 8.432V30.6693H124.869V28.024C124.014 28.9884 122.995 29.7324 121.81 30.256C120.625 30.752 119.344 31 117.966 31C115.045 31 112.73 30.1596 111.022 28.4787C109.314 26.7978 108.459 24.304 108.459 20.9973V8.432H114.907V20.0467C114.907 23.6289 116.409 25.42 119.413 25.42C120.956 25.42 122.196 24.924 123.133 23.932C124.07 22.9124 124.538 21.4107 124.538 19.4267V8.432H130.986Z" fill="#E72317"/>
</svg>
