<svg width="120" height="31" viewBox="0 0 120 31" fill="none" xmlns="http://www.w3.org/2000/svg">
<g clip-path="url(#clip0_20_62)">
<path d="M1.05376 1.92889H26.043C26.625 1.92889 27.0968 2.40068 27.0968 2.98266V7.89678C27.0968 8.55135 26.8127 9.17111 26.3182 9.6L12.3441 21.2903H26.043C26.625 21.2903 27.0968 21.7535 27.0968 22.3355V27.977C27.0968 28.559 26.625 29.0308 26.043 29.0308H1.05376C0.471786 29.0308 0 28.559 0 27.977V23.071C0 22.4164 0.284042 21.7966 0.778527 21.3677L14.7527 9.67742H1.05376C0.471786 9.67742 0 9.19488 0 8.6129V2.98266C0 2.40068 0.471786 1.92889 1.05376 1.92889ZM44.5161 0.967743C47.4056 0.967743 49.9816 1.6175 52.1321 2.8049C54.2827 3.9923 56.0077 5.71733 57.1951 7.86787C58.3825 10.0184 59.0323 12.5944 59.0323 15.4839C59.0323 18.3733 58.3825 20.9493 57.1951 23.0999C56.0077 25.2504 54.2827 26.9754 52.1321 28.1628C49.9816 29.3502 47.4056 30 44.5161 30C41.6267 30 39.0507 29.3502 36.9001 28.1628C34.7496 26.9754 33.0246 25.2504 31.8372 23.0999C30.6498 20.9493 30 18.3733 30 15.4839C30 12.5944 30.6498 10.0184 31.8372 7.86787C33.0246 5.71733 34.7496 3.9923 36.9001 2.8049C39.0507 1.6175 41.6267 0.967743 44.5161 0.967743ZM44.5161 8.70968C43.134 8.70968 41.9206 9.00165 40.917 9.54451C39.9134 10.0874 39.1196 10.8811 38.5768 11.8847C38.0339 12.8883 37.7419 14.1017 37.7419 15.4839C37.7419 16.866 38.0339 18.0794 38.5768 19.083C39.1196 20.0866 39.9134 20.8804 40.917 21.4232C41.9206 21.9661 43.134 22.2581 44.5161 22.2581C45.8983 22.2581 47.1117 21.9661 48.1153 21.4232C49.1189 20.8804 49.9126 20.0866 50.4555 19.083C50.9984 18.0794 51.2903 16.866 51.2903 15.4839C51.2903 14.1017 50.9984 12.8883 50.4555 11.8847C49.9126 10.8811 49.1189 10.0874 48.1153 9.54451C47.1117 9.00165 45.8983 8.70968 44.5161 8.70968ZM75.4839 0.967743C78.3733 0.967743 80.9493 1.6175 83.0999 2.8049C85.2504 3.9923 86.9754 5.71733 88.1628 7.86787C89.3502 10.0184 90 12.5944 90 15.4839C90 18.3733 89.3502 20.9493 88.1628 23.0999C86.9754 25.2504 85.2504 26.9754 83.0999 28.1628C80.9493 29.3502 78.3733 30 75.4839 30C72.5944 30 70.0184 29.3502 67.8679 28.1628C65.7173 26.9754 63.9923 25.2504 62.8049 23.0999C61.6175 20.9493 60.9677 18.3733 60.9677 15.4839C60.9677 12.5944 61.6175 10.0184 62.8049 7.86787C63.9923 5.71733 65.7173 3.9923 67.8679 2.8049C70.0184 1.6175 72.5944 0.967743 75.4839 0.967743ZM75.4839 8.70968C74.1017 8.70968 72.8883 9.00165 71.8847 9.54451C70.8811 10.0874 70.0874 10.8811 69.5445 11.8847C69.0016 12.8883 68.7097 14.1017 68.7097 15.4839C68.7097 16.866 69.0016 18.0794 69.5445 19.083C70.0874 20.0866 70.8811 20.8804 71.8847 21.4232C72.8883 21.9661 74.1017 22.2581 75.4839 22.2581C76.866 22.2581 78.0794 21.9661 79.083 21.4232C80.0866 20.8804 80.8804 20.0866 81.4232 19.083C81.9661 18.0794 82.2581 16.866 82.2581 15.4839C82.2581 14.1017 81.9661 12.8883 81.4232 11.8847C80.8804 10.8811 80.0866 10.0874 79.083 9.54451C78.0794 9.00165 76.866 8.70968 75.4839 8.70968ZM120.003 2.98601V27.9766C120.003 28.5586 119.531 29.0304 118.949 29.0304H114.039C113.384 29.0304 112.764 28.7464 112.335 28.252L100.645 14.2795V27.9766C100.645 28.5586 100.163 29.0304 99.5806 29.0304H93.9537C93.3717 29.0304 92.8999 28.5586 92.8999 27.9766V2.98601C92.8999 2.404 93.3717 1.93219 93.9537 1.93219H98.8645C99.5192 1.93219 100.139 2.2163 100.568 2.7109L112.258 16.6882V2.98601C112.258 2.404 112.721 1.93219 113.303 1.93219H118.949C119.531 1.93219 120.003 2.404 120.003 2.98601Z" fill="url(#paint0_linear_20_62)"/>
</g>
<defs>
<linearGradient id="paint0_linear_20_62" x1="92.8143" y1="15.4839" x2="26.1742" y2="15.4839" gradientUnits="userSpaceOnUse">
<stop stop-color="#6339F5"/>
<stop offset="1" stop-color="#3D3F55"/>
</linearGradient>
<clipPath id="clip0_20_62">
<rect width="120" height="30.9677" fill="white"/>
</clipPath>
</defs>
</svg>
